<svg width="8" height="14" viewBox="0 0 8 14" fill="none" xmlns="http://www.w3.org/2000/svg">
<path d="M1.1825 13.9017C1.04 13.9017 0.897501 13.8492 0.785001 13.7367C0.567501 13.5192 0.282436 13.1167 0.499936 12.8992L5.49994 7.89917C5.85994 7.53917 5.85994 7.25917 5.49994 6.89917L0.499936 1.89917C0.282436 1.68167 0.567501 1.27918 0.785001 1.06168C1.0025 0.844185 1.3625 0.844185 1.58 1.06168L6.47 5.95168C6.8525 6.33419 7.07 6.85169 7.07 7.39919C7.07 7.94669 6.86 8.46419 6.47 8.84669L1.58 13.7367C1.4675 13.8417 1.325 13.9017 1.1825 13.9017Z" fill="#518BBB"/>
</svg>
