<svg width="8" height="13" viewBox="0 0 8 13" fill="none" xmlns="http://www.w3.org/2000/svg">
<path d="M1.6825 13.0024C1.54 13.0024 1.3975 12.9499 1.285 12.8374C1.0675 12.6199 0.782439 12.2174 0.999939 11.9999L5.99994 6.99988C6.35994 6.63988 6.35994 6.35988 5.99994 5.99988L0.999939 0.999878C0.782439 0.782378 1.0675 0.379893 1.285 0.162393C1.5025 -0.0551074 1.8625 -0.0551074 2.08 0.162393L6.97 5.05239C7.3525 5.43489 7.57 5.95239 7.57 6.49989C7.57 7.04739 7.36 7.56489 6.97 7.94739L2.08 12.8374C1.9675 12.9424 1.825 13.0024 1.6825 13.0024Z" fill="white"/>
</svg>
